<mxfile host="Electron" agent="Mozilla/5.0 (Windows NT 10.0; Win64; x64) AppleWebKit/537.36 (KHTML, like Gecko) draw.io/27.0.9 Chrome/134.0.6998.205 Electron/35.4.0 Safari/537.36" version="27.0.9">
  <diagram name="Page-1" id="3UOv38c5IZ44Tc2Yzubk">
    <mxGraphModel dx="1097" dy="661" grid="1" gridSize="10" guides="1" tooltips="1" connect="1" arrows="1" fold="1" page="1" pageScale="1" pageWidth="1100" pageHeight="850" math="0" shadow="0">
      <root>
        <mxCell id="0" />
        <mxCell id="1" parent="0" />
        <mxCell id="SM4SvRMPmGETuyjJ0OjZ-1" value="" style="rounded=0;whiteSpace=wrap;html=1;fillColor=#dae8fc;strokeColor=#6c8ebf;" vertex="1" parent="1">
          <mxGeometry x="630" y="486" width="140" height="80" as="geometry" />
        </mxCell>
        <mxCell id="SM4SvRMPmGETuyjJ0OjZ-2" value="&lt;b&gt;&lt;font style=&quot;font-size: 16px;&quot;&gt;Internal Pulse Generator&lt;/font&gt;&lt;/b&gt;" style="text;strokeColor=none;align=center;fillColor=none;html=1;verticalAlign=middle;whiteSpace=wrap;rounded=0;" vertex="1" parent="1">
          <mxGeometry x="642.5" y="511" width="115" height="30" as="geometry" />
        </mxCell>
        <mxCell id="SM4SvRMPmGETuyjJ0OjZ-4" value="" style="verticalLabelPosition=bottom;shadow=0;dashed=0;align=center;html=1;verticalAlign=top;shape=mxgraph.electrical.abstract.operational_amp_1;fillColor=#f8cecc;strokeColor=#b85450;" vertex="1" parent="1">
          <mxGeometry x="952" y="632.5" width="160" height="144" as="geometry" />
        </mxCell>
        <mxCell id="SM4SvRMPmGETuyjJ0OjZ-5" value="" style="pointerEvents=1;verticalLabelPosition=bottom;shadow=0;dashed=0;align=center;html=1;verticalAlign=top;shape=mxgraph.electrical.waveforms.step_1;" vertex="1" parent="1">
          <mxGeometry x="974" y="675.75" width="48" height="57.5" as="geometry" />
        </mxCell>
        <mxCell id="SM4SvRMPmGETuyjJ0OjZ-6" value="" style="verticalLabelPosition=bottom;shadow=0;dashed=0;align=center;html=1;verticalAlign=top;shape=mxgraph.electrical.abstract.dac;rotation=180;fillColor=#e1d5e7;strokeColor=#9673a6;direction=west;" vertex="1" parent="1">
          <mxGeometry x="658" y="632.5" width="230" height="153.5" as="geometry" />
        </mxCell>
        <mxCell id="SM4SvRMPmGETuyjJ0OjZ-7" value="&lt;b&gt;&lt;font style=&quot;font-size: 17px;&quot;&gt;12 bit DAC&lt;/font&gt;&lt;/b&gt;" style="text;strokeColor=none;align=center;fillColor=none;html=1;verticalAlign=middle;whiteSpace=wrap;rounded=0;direction=west;" vertex="1" parent="1">
          <mxGeometry x="690" y="683.25" width="100" height="50" as="geometry" />
        </mxCell>
        <mxCell id="SM4SvRMPmGETuyjJ0OjZ-8" value="&lt;b&gt;&lt;font style=&quot;font-size: 18px;&quot;&gt;SAR Logic&lt;/font&gt;&lt;/b&gt;" style="rounded=0;whiteSpace=wrap;html=1;fillColor=#d5e8d4;strokeColor=#82b366;" vertex="1" parent="1">
          <mxGeometry x="1166" y="654.06" width="166" height="100.88" as="geometry" />
        </mxCell>
        <mxCell id="SM4SvRMPmGETuyjJ0OjZ-9" value="" style="endArrow=none;html=1;rounded=0;exitX=1;exitY=0.5;exitDx=0;exitDy=0;entryX=0;entryY=0.165;entryDx=0;entryDy=0;entryPerimeter=0;" edge="1" parent="1" target="SM4SvRMPmGETuyjJ0OjZ-4">
          <mxGeometry width="50" height="50" relative="1" as="geometry">
            <mxPoint x="832" y="655.9999999999998" as="sourcePoint" />
            <mxPoint x="922" y="656" as="targetPoint" />
          </mxGeometry>
        </mxCell>
        <mxCell id="SM4SvRMPmGETuyjJ0OjZ-10" value="" style="endArrow=none;html=1;rounded=0;entryX=0;entryY=0.5;entryDx=0;entryDy=0;exitX=1;exitY=0.5;exitDx=0;exitDy=0;exitPerimeter=0;" edge="1" parent="1" source="SM4SvRMPmGETuyjJ0OjZ-4" target="SM4SvRMPmGETuyjJ0OjZ-8">
          <mxGeometry width="50" height="50" relative="1" as="geometry">
            <mxPoint x="916" y="722" as="sourcePoint" />
            <mxPoint x="966" y="672" as="targetPoint" />
          </mxGeometry>
        </mxCell>
        <mxCell id="SM4SvRMPmGETuyjJ0OjZ-13" value="" style="endArrow=none;html=1;rounded=0;exitX=0.001;exitY=0.832;exitDx=0;exitDy=0;exitPerimeter=0;" edge="1" parent="1" source="SM4SvRMPmGETuyjJ0OjZ-4">
          <mxGeometry width="50" height="50" relative="1" as="geometry">
            <mxPoint x="948" y="752" as="sourcePoint" />
            <mxPoint x="842" y="752" as="targetPoint" />
          </mxGeometry>
        </mxCell>
        <mxCell id="SM4SvRMPmGETuyjJ0OjZ-16" value="" style="endArrow=classic;html=1;rounded=0;exitX=1;exitY=0.75;exitDx=0;exitDy=0;strokeColor=light-dark(#d6b656, #ededed);entryX=0.618;entryY=0.007;entryDx=0;entryDy=0;entryPerimeter=0;" edge="1" parent="1" source="SM4SvRMPmGETuyjJ0OjZ-1" target="SM4SvRMPmGETuyjJ0OjZ-6">
          <mxGeometry width="50" height="50" relative="1" as="geometry">
            <mxPoint x="628" y="658" as="sourcePoint" />
            <mxPoint x="800" y="630" as="targetPoint" />
            <Array as="points">
              <mxPoint x="800" y="546" />
            </Array>
          </mxGeometry>
        </mxCell>
        <mxCell id="SM4SvRMPmGETuyjJ0OjZ-17" value="" style="endArrow=classic;html=1;rounded=0;exitX=1;exitY=0.25;exitDx=0;exitDy=0;entryX=0.612;entryY=0.11;entryDx=0;entryDy=0;entryPerimeter=0;strokeColor=light-dark(#75f57e, #ededed);" edge="1" parent="1" source="SM4SvRMPmGETuyjJ0OjZ-1" target="SM4SvRMPmGETuyjJ0OjZ-4">
          <mxGeometry width="50" height="50" relative="1" as="geometry">
            <mxPoint x="940" y="706" as="sourcePoint" />
            <mxPoint x="1048" y="512" as="targetPoint" />
            <Array as="points">
              <mxPoint x="1050" y="506" />
            </Array>
          </mxGeometry>
        </mxCell>
        <mxCell id="SM4SvRMPmGETuyjJ0OjZ-19" value="" style="endArrow=classic;html=1;rounded=0;strokeColor=light-dark(#75f57e, #ededed);entryX=0.5;entryY=0;entryDx=0;entryDy=0;" edge="1" parent="1">
          <mxGeometry width="50" height="50" relative="1" as="geometry">
            <mxPoint x="1022" y="506" as="sourcePoint" />
            <mxPoint x="1221" y="654.06" as="targetPoint" />
            <Array as="points">
              <mxPoint x="1222" y="506" />
            </Array>
          </mxGeometry>
        </mxCell>
        <mxCell id="SM4SvRMPmGETuyjJ0OjZ-21" value="" style="endArrow=classic;html=1;rounded=0;entryX=0;entryY=0.5;entryDx=0;entryDy=0;exitX=0.092;exitY=1.003;exitDx=0;exitDy=0;exitPerimeter=0;" edge="1" parent="1" source="SM4SvRMPmGETuyjJ0OjZ-27">
          <mxGeometry width="50" height="50" relative="1" as="geometry">
            <mxPoint x="340" y="662" as="sourcePoint" />
            <mxPoint x="470" y="662.4999999999998" as="targetPoint" />
          </mxGeometry>
        </mxCell>
        <mxCell id="SM4SvRMPmGETuyjJ0OjZ-22" value="" style="endArrow=classic;html=1;rounded=0;entryX=0;entryY=0.25;entryDx=0;entryDy=0;fontColor=light-dark(#CC00CC,#EDEDED);strokeColor=#CC00CC;" edge="1" parent="1">
          <mxGeometry width="50" height="50" relative="1" as="geometry">
            <mxPoint x="500" y="526" as="sourcePoint" />
            <mxPoint x="630" y="526" as="targetPoint" />
          </mxGeometry>
        </mxCell>
        <mxCell id="SM4SvRMPmGETuyjJ0OjZ-23" value="&lt;b&gt;&lt;font style=&quot;font-size: 13px;&quot;&gt;Comparator&lt;/font&gt;&lt;/b&gt;" style="text;strokeColor=none;align=center;fillColor=none;html=1;verticalAlign=middle;whiteSpace=wrap;rounded=0;" vertex="1" parent="1">
          <mxGeometry x="1012" y="689.5" width="60" height="30" as="geometry" />
        </mxCell>
        <mxCell id="SM4SvRMPmGETuyjJ0OjZ-24" value="&lt;font style=&quot;color: rgb(0, 153, 0); font-size: 18px;&quot;&gt;clk_sar&lt;/font&gt;" style="text;strokeColor=none;align=center;fillColor=none;html=1;verticalAlign=middle;whiteSpace=wrap;rounded=0;" vertex="1" parent="1">
          <mxGeometry x="884" y="481" width="184" height="30" as="geometry" />
        </mxCell>
        <mxCell id="SM4SvRMPmGETuyjJ0OjZ-25" value="&lt;font style=&quot;font-size: 16px; color: rgb(204, 204, 0);&quot;&gt;&lt;b style=&quot;&quot;&gt;clk_samp&lt;/b&gt;&lt;/font&gt;" style="text;strokeColor=none;align=center;fillColor=none;html=1;verticalAlign=middle;whiteSpace=wrap;rounded=0;" vertex="1" parent="1">
          <mxGeometry x="800" y="552" width="88" height="30" as="geometry" />
        </mxCell>
        <mxCell id="SM4SvRMPmGETuyjJ0OjZ-26" value="&lt;font style=&quot;font-size: 13px; color: rgb(204, 0, 204);&quot;&gt;&lt;b&gt;External Clock&lt;/b&gt;&lt;/font&gt;" style="text;strokeColor=none;align=center;fillColor=none;html=1;verticalAlign=middle;whiteSpace=wrap;rounded=0;" vertex="1" parent="1">
          <mxGeometry x="501" y="500" width="98" height="30" as="geometry" />
        </mxCell>
        <mxCell id="SM4SvRMPmGETuyjJ0OjZ-27" value="&lt;font color=&quot;#ff3333&quot;&gt;&lt;span style=&quot;font-size: 17px;&quot;&gt;&lt;b&gt;V&lt;sub&gt;in_n&lt;/sub&gt;&lt;/b&gt;&lt;/span&gt;&lt;/font&gt;" style="text;strokeColor=none;align=center;fillColor=none;html=1;verticalAlign=middle;whiteSpace=wrap;rounded=0;" vertex="1" parent="1">
          <mxGeometry x="380" y="632.5" width="60" height="30" as="geometry" />
        </mxCell>
        <mxCell id="SM4SvRMPmGETuyjJ0OjZ-28" value="&lt;font style=&quot;color: rgb(255, 0, 0); font-size: 17px;&quot;&gt;&lt;b style=&quot;&quot;&gt;OUT&lt;/b&gt;&lt;/font&gt;" style="text;strokeColor=none;align=center;fillColor=none;html=1;verticalAlign=middle;whiteSpace=wrap;rounded=0;" vertex="1" parent="1">
          <mxGeometry x="1332" y="675.75" width="60" height="30" as="geometry" />
        </mxCell>
        <mxCell id="SM4SvRMPmGETuyjJ0OjZ-29" value="&lt;font color=&quot;#0000cc&quot;&gt;&lt;span style=&quot;font-size: 17px;&quot;&gt;&lt;b&gt;EOC&lt;/b&gt;&lt;/span&gt;&lt;/font&gt;" style="text;strokeColor=none;align=center;fillColor=none;html=1;verticalAlign=middle;whiteSpace=wrap;rounded=0;" vertex="1" parent="1">
          <mxGeometry x="710" y="410" width="60" height="30" as="geometry" />
        </mxCell>
        <mxCell id="SM4SvRMPmGETuyjJ0OjZ-30" value="" style="endArrow=classic;html=1;rounded=0;exitX=1;exitY=0.5;exitDx=0;exitDy=0;strokeWidth=2;strokeColor=#FF3333;" edge="1" parent="1" source="SM4SvRMPmGETuyjJ0OjZ-8">
          <mxGeometry width="50" height="50" relative="1" as="geometry">
            <mxPoint x="1376" y="754" as="sourcePoint" />
            <mxPoint x="1416" y="704" as="targetPoint" />
          </mxGeometry>
        </mxCell>
        <mxCell id="SM4SvRMPmGETuyjJ0OjZ-222" value="" style="endArrow=classic;html=1;rounded=0;exitX=0;exitY=1;exitDx=0;exitDy=0;" edge="1" parent="1" source="SM4SvRMPmGETuyjJ0OjZ-8">
          <mxGeometry width="50" height="50" relative="1" as="geometry">
            <mxPoint x="1070" y="860" as="sourcePoint" />
            <mxPoint x="800" y="784" as="targetPoint" />
            <Array as="points">
              <mxPoint x="1166" y="820" />
              <mxPoint x="800" y="820" />
            </Array>
          </mxGeometry>
        </mxCell>
        <mxCell id="SM4SvRMPmGETuyjJ0OjZ-223" value="" style="endArrow=classic;html=1;rounded=0;exitX=0.25;exitY=1;exitDx=0;exitDy=0;" edge="1" parent="1" source="SM4SvRMPmGETuyjJ0OjZ-8">
          <mxGeometry width="50" height="50" relative="1" as="geometry">
            <mxPoint x="1136" y="754.94" as="sourcePoint" />
            <mxPoint x="770" y="783.94" as="targetPoint" />
            <Array as="points">
              <mxPoint x="1208" y="830" />
              <mxPoint x="770" y="830" />
            </Array>
          </mxGeometry>
        </mxCell>
        <mxCell id="SM4SvRMPmGETuyjJ0OjZ-224" value="" style="endArrow=classic;html=1;rounded=0;exitX=0.75;exitY=1;exitDx=0;exitDy=0;" edge="1" parent="1" source="SM4SvRMPmGETuyjJ0OjZ-8">
          <mxGeometry width="50" height="50" relative="1" as="geometry">
            <mxPoint x="1112" y="754.94" as="sourcePoint" />
            <mxPoint x="674" y="783.8800000000001" as="targetPoint" />
            <Array as="points">
              <mxPoint x="1290" y="870" />
              <mxPoint x="674" y="870" />
            </Array>
          </mxGeometry>
        </mxCell>
        <mxCell id="SM4SvRMPmGETuyjJ0OjZ-225" value="&lt;font style=&quot;font-size: 26px;&quot;&gt;&lt;b&gt;...&lt;/b&gt;&lt;/font&gt;" style="text;strokeColor=none;align=center;fillColor=none;html=1;verticalAlign=middle;whiteSpace=wrap;rounded=0;direction=east;rotation=90;" vertex="1" parent="1">
          <mxGeometry x="990" y="835" width="60" height="30" as="geometry" />
        </mxCell>
        <mxCell id="SM4SvRMPmGETuyjJ0OjZ-226" value="&lt;font style=&quot;font-size: 16px;&quot;&gt;D0&lt;/font&gt;" style="text;strokeColor=none;align=center;fillColor=none;html=1;verticalAlign=middle;whiteSpace=wrap;rounded=0;strokeWidth=3;fontStyle=1;labelBackgroundColor=default;fontSize=29;" vertex="1" parent="1">
          <mxGeometry x="1290" y="755.72" width="30" height="33.5" as="geometry" />
        </mxCell>
        <mxCell id="SM4SvRMPmGETuyjJ0OjZ-227" value="&lt;font style=&quot;font-size: 16px;&quot;&gt;D10&lt;/font&gt;" style="text;strokeColor=none;align=center;fillColor=none;html=1;verticalAlign=middle;whiteSpace=wrap;rounded=0;strokeWidth=3;fontStyle=1;labelBackgroundColor=default;fontSize=29;" vertex="1" parent="1">
          <mxGeometry x="1170" y="754.94" width="41" height="35.06" as="geometry" />
        </mxCell>
        <mxCell id="SM4SvRMPmGETuyjJ0OjZ-228" value="&lt;font style=&quot;font-size: 16px;&quot;&gt;D11&lt;/font&gt;" style="text;strokeColor=none;align=center;fillColor=none;html=1;verticalAlign=middle;whiteSpace=wrap;rounded=0;strokeWidth=3;fontStyle=1;labelBackgroundColor=default;fontSize=29;" vertex="1" parent="1">
          <mxGeometry x="1122" y="759.94" width="44" height="25.06" as="geometry" />
        </mxCell>
        <mxCell id="SM4SvRMPmGETuyjJ0OjZ-233" style="edgeStyle=orthogonalEdgeStyle;rounded=0;orthogonalLoop=1;jettySize=auto;html=1;exitX=1;exitY=0.5;exitDx=0;exitDy=0;" edge="1" parent="1" source="SM4SvRMPmGETuyjJ0OjZ-230">
          <mxGeometry relative="1" as="geometry">
            <mxPoint x="658" y="662.4615384615385" as="targetPoint" />
          </mxGeometry>
        </mxCell>
        <mxCell id="SM4SvRMPmGETuyjJ0OjZ-230" value="&lt;b&gt;&lt;font style=&quot;font-size: 15px;&quot;&gt;Sample &amp;amp; Hold&lt;/font&gt;&lt;/b&gt;" style="rounded=0;whiteSpace=wrap;html=1;fillColor=#fff2cc;strokeColor=#d6b656;" vertex="1" parent="1">
          <mxGeometry x="470" y="632.5" width="120" height="60" as="geometry" />
        </mxCell>
        <mxCell id="SM4SvRMPmGETuyjJ0OjZ-234" style="edgeStyle=orthogonalEdgeStyle;rounded=0;orthogonalLoop=1;jettySize=auto;html=1;exitX=1;exitY=0.5;exitDx=0;exitDy=0;" edge="1" parent="1" source="SM4SvRMPmGETuyjJ0OjZ-231">
          <mxGeometry relative="1" as="geometry">
            <mxPoint x="658" y="754.9615384615385" as="targetPoint" />
          </mxGeometry>
        </mxCell>
        <mxCell id="SM4SvRMPmGETuyjJ0OjZ-231" value="&lt;b&gt;&lt;font style=&quot;font-size: 15px;&quot;&gt;Sample &amp;amp; Hold&lt;/font&gt;&lt;/b&gt;" style="rounded=0;whiteSpace=wrap;html=1;fillColor=#fff2cc;strokeColor=#d6b656;" vertex="1" parent="1">
          <mxGeometry x="470" y="725" width="120" height="60" as="geometry" />
        </mxCell>
        <mxCell id="SM4SvRMPmGETuyjJ0OjZ-235" value="" style="endArrow=classic;html=1;rounded=0;entryX=0;entryY=0.5;entryDx=0;entryDy=0;exitX=0.092;exitY=1.003;exitDx=0;exitDy=0;exitPerimeter=0;" edge="1" parent="1" source="SM4SvRMPmGETuyjJ0OjZ-236">
          <mxGeometry width="50" height="50" relative="1" as="geometry">
            <mxPoint x="340" y="754.75" as="sourcePoint" />
            <mxPoint x="470" y="755.2499999999998" as="targetPoint" />
          </mxGeometry>
        </mxCell>
        <mxCell id="SM4SvRMPmGETuyjJ0OjZ-236" value="&lt;font color=&quot;#ff3333&quot;&gt;&lt;span style=&quot;font-size: 17px;&quot;&gt;&lt;b&gt;V&lt;sub&gt;in_p&lt;/sub&gt;&lt;/b&gt;&lt;/span&gt;&lt;/font&gt;" style="text;strokeColor=none;align=center;fillColor=none;html=1;verticalAlign=middle;whiteSpace=wrap;rounded=0;" vertex="1" parent="1">
          <mxGeometry x="380" y="724.94" width="60" height="30" as="geometry" />
        </mxCell>
        <mxCell id="SM4SvRMPmGETuyjJ0OjZ-237" value="" style="endArrow=classic;html=1;rounded=0;entryX=0.5;entryY=0;entryDx=0;entryDy=0;strokeColor=#007FFF;exitX=0.75;exitY=0;exitDx=0;exitDy=0;" edge="1" parent="1" source="SM4SvRMPmGETuyjJ0OjZ-8" target="SM4SvRMPmGETuyjJ0OjZ-1">
          <mxGeometry width="50" height="50" relative="1" as="geometry">
            <mxPoint x="1298" y="641.5" as="sourcePoint" />
            <mxPoint x="698" y="486.5" as="targetPoint" />
            <Array as="points">
              <mxPoint x="1290" y="440" />
              <mxPoint x="876" y="440" />
              <mxPoint x="700" y="440" />
            </Array>
          </mxGeometry>
        </mxCell>
        <mxCell id="SM4SvRMPmGETuyjJ0OjZ-238" value="" style="endArrow=classic;html=1;rounded=0;strokeColor=light-dark(#d6b656, #ededed);entryX=0.5;entryY=1;entryDx=0;entryDy=0;" edge="1" parent="1" target="SM4SvRMPmGETuyjJ0OjZ-231">
          <mxGeometry width="50" height="50" relative="1" as="geometry">
            <mxPoint x="800" y="590" as="sourcePoint" />
            <mxPoint x="490" y="658" as="targetPoint" />
            <Array as="points">
              <mxPoint x="360" y="590" />
              <mxPoint x="360" y="820" />
              <mxPoint x="530" y="820" />
            </Array>
          </mxGeometry>
        </mxCell>
        <mxCell id="SM4SvRMPmGETuyjJ0OjZ-239" value="" style="endArrow=classic;html=1;rounded=0;strokeColor=light-dark(#d6b656, #ededed);entryX=0.5;entryY=0;entryDx=0;entryDy=0;" edge="1" parent="1" target="SM4SvRMPmGETuyjJ0OjZ-230">
          <mxGeometry width="50" height="50" relative="1" as="geometry">
            <mxPoint x="530" y="590" as="sourcePoint" />
            <mxPoint x="550" y="688" as="targetPoint" />
            <Array as="points">
              <mxPoint x="530" y="590" />
            </Array>
          </mxGeometry>
        </mxCell>
      </root>
    </mxGraphModel>
  </diagram>
</mxfile>
